# xmcd CD database file
#
# Track frame offsets:
#	150
#	18554
#	31117
#	59435
#	78699
#	97307
#	113722
#	128905
#	146183
#	165370
#	187691
#	205918
#	225265
#	239889
#	255452
#	268036
#	288435
#	310482
#
# Disc length: 4393 seconds
#
# Revision: 1
# Processed by: cddbd v1.5.2PL0 Copyright (c) Steve Scherf et al.
# Submitted via: CDex 1.70beta2
#
DISCID=03112712
DTITLE=Laura Fygi - The Love Album
DYEAR=1997
DGENRE=Jazz
TTITLE0=It's Crazy
TTITLE1=Let There Be Love
TTITLE2=Bewitched
TTITLE3=I Only Have Eyes for You
TTITLE4=Good Morning Heartache
TTITLE5=Dream A Little Dream of Me
TTITLE6=My Foolish Heart
TTITLE7=Go Away Little Boy
TTITLE8=Dindi
TTITLE9=The Lady Wants to Know
TTITLE10=You Do Something to Me
TTITLE11=Tell Me All About It (Duet with Michael Franks)
TTITLE12=Each and Everyone
TTITLE13=Sabor A Mi
TTITLE14=Baubles, Bangles and Beads
TTITLE15=Baby Come to Me
TTITLE16=Lately
TTITLE17=Take a Bow
EXTD=YEAR: 1997
EXTT0=
EXTT1=
EXTT2=
EXTT3=
EXTT4=
EXTT5=
EXTT6=
EXTT7=
EXTT8=
EXTT9=
EXTT10=
EXTT11=
EXTT12=
EXTT13=
EXTT14=
EXTT15=
EXTT16=
EXTT17=
PLAYORDER=
